<?xml version="1.0" encoding="UTF-8"?> <svg xmlns="http://www.w3.org/2000/svg" viewBox="0 0 281.92 312.93"><defs><style>.cls-1{fill:#1d1d1b;}.cls-2{fill:#da1018;}.cls-3{fill:none;}</style></defs><g id="Слой_2" data-name="Слой 2"><g id="Слой_1-2" data-name="Слой 1"><path class="cls-1" d="M149.38,48.67c24.14-3.57,37.64-.5,58.36,10.16,14.06,7.23,32,19.52,44.78,36.14,9.53,12.13,17.33,26.93,20.71,36.31,4.16,11.51,8.68,23.78,8.69,48.75a115.63,115.63,0,0,1-5.38,36.46c-10,33.48-32.37,58.53-51.43,71.6a141.12,141.12,0,0,1-36.94,18.51c-10.15,3.2-30.64,7-44.83,6.24,0,0-.38-6.69-2.27-8.58a69,69,0,0,0,35.41-13.71c9.57-7.25,24.91-20.09,27.92-49a83.83,83.83,0,0,0-.84-19.85c-5.8-32.08-25.32-51.61-51.93-59.22a142.21,142.21,0,0,1-14.81-5.84,66.3,66.3,0,0,1-17.33-12.12C104.53,129.31,98.78,101.82,109,81c5.12-10.58,10-15.66,19-22.9,4.49-3.59,15.6-8.54,21.41-9.39"></path><path class="cls-2" d="M171.4,191.5c-1.43-1.46-8.68-8.78-16.79-12.3-2.43-1.06-10.22-4.27-12.66-5.28-29.4-12.23-48.08-27.34-56.23-58.9-1.83-7.09-1.27-17.41-1-20.61,2-27,19.11-42.37,28.69-49.62,7.2-5.47,16.1-7.85,22.56-13,6.66-5.29,10.89-9.52,11.71-17.36,1-9.81-3.09-14.44-3.09-14.44H138c0,9.41-5,17.8-11,21.24-5.44,3.13-18.26,6.31-24.29,8.22A133,133,0,0,0,75.85,41.57L75,36.81l-.72-3.53S60.42,38.16,42.92,55.85c-15.63,15.8-22.27,44.77-23.09,48.55L13.7,99.46l-2.84-2.22S3.54,110,1.8,134.79c-1.67,23.74,11.74,57.72,11.74,57.72h0l-9.94-.16H0s-.46,16.46,15.92,35.19c27.42,31.34,62.71,47.85,62.71,47.85l0,0c.41.22.83.47,1.24.68,20.72,10.66,37.53,14.92,61.67,11.36,5.81-.86,16.92-5.81,21.41-9.4,9-7.23,13.87-12.31,19-22.9,10.21-20.86,4.46-48.35-10.5-63.59"></path><rect class="cls-3" width="281.92" height="312.93"></rect></g></g></svg> 